<svg width="47" height="31" viewBox="0 0 47 31" fill="none" xmlns="http://www.w3.org/2000/svg">
    <path d="M35.765 0C29.867 0 25.21 4.85859 25.21 10.8511C25.21 16.8435 30.054 21.7021 35.952 21.7021C36.011 21.7021 36.1 21.694 36.159 21.693C33.827 23.5797 30.898 24.7166 27.692 24.7166C26.217 24.7166 25.03 25.9318 25.03 27.4294C25.03 28.927 25.979 30.1422 27.454 30.1422C37.923 30.1411 46.195 21.4877 46.195 10.8511C46.195 10.849 46.195 10.847 46.195 10.8439C46.195 4.85453 41.661 0 35.765 0Z" fill="white"/>
    <path d="M10.75 0C4.852 0 0.187 4.85859 0.187 10.8511C0.187 16.8435 5.027 21.7021 10.926 21.7021C10.985 21.7021 11.072 21.694 11.131 21.693C8.799 23.5797 5.869 24.7166 2.663 24.7166C1.188 24.7166 0 25.9318 0 27.4294C0 28.927 0.964 30.1422 2.439 30.1422C12.908 30.1411 21.195 21.4877 21.195 10.8511C21.195 10.849 21.195 10.847 21.195 10.8439C21.195 4.85453 16.646 0 10.75 0Z" fill="white"/>
</svg>