<svg width="31" height="28" viewBox="0 0 31 28" fill="none" xmlns="http://www.w3.org/2000/svg">
    <path opacity="0.2" fill-rule="evenodd" clip-rule="evenodd" d="M19.0585 17.2624L23.7915 26.5222C24.0044 26.908 24.3469 27.1076 24.7893 27.0477C25.1385 27.0012 25.4845 26.8016 25.7073 26.5322C26.0033 26.173 26.0399 25.7239 25.8071 25.3215L11.771 1.29385C10.8264 2.11872 10.8597 3.82832 11.3453 5.78739C11.9107 8.0591 13.0948 10.6335 14.1492 12.6558C14.7279 13.7633 15.2667 14.7046 15.6459 15.3432C17.2025 15.157 18.35 15.8821 19.0585 17.2624ZM1.80274 12.2899L11.8774 10.1013C12.3398 11.159 12.842 12.1801 13.3176 13.0915C13.5738 13.5837 13.8232 14.0427 14.056 14.4618L8.6578 15.7557L1.80274 12.2899ZM14.5383 15.31C14.7179 15.616 14.8743 15.8821 15.004 16.0983L15.1736 16.3776L15.4929 16.3178C16.7768 16.0716 17.6249 16.5539 18.2236 17.6914L20.5519 22.2449L9.07356 25.1286V16.6204L14.5383 15.31ZM8.12895 16.5406L0.941282 12.9085V20.7415L8.12895 24.9057V16.5406ZM19.7536 13.0915L17.3156 8.91723L20.8745 8.14226L28.3316 11.0293L19.7536 13.0915ZM29.1132 11.8109V20.0929L24.5199 21.247L20.2492 13.9396L29.1132 11.8109ZM16.8167 8.06243L20.8146 7.19432L20.951 7.16439L21.084 7.2176L29.7552 10.577L30.0578 10.6934V11.016V20.4621V20.8279L29.7019 20.9177L25.0188 22.0952L26.6253 24.8459C27.0677 25.6109 26.9978 26.449 26.439 27.1309C26.0632 27.5899 25.5044 27.9059 24.9157 27.9824C24.0908 28.0888 23.3391 27.7096 22.9633 26.9579L20.9942 23.1096L8.73097 26.1929L8.54804 26.2395L8.38173 26.143L0.236152 21.42L0 21.2836V21.0142V12.1003V11.7211L0.372521 11.6413L11.5049 9.21991C11.0692 8.14226 10.6867 7.0513 10.4306 6.01356C9.80862 3.50902 9.8951 1.3005 11.5415 0.302674C11.7211 0.192913 11.9174 0.0997825 12.1036 0L12.3298 0.385826L16.8167 8.06243Z" fill="black"/>
</svg>