<svg width="39" height="36" viewBox="0 0 39 36" fill="none" xmlns="http://www.w3.org/2000/svg">
    <path opacity="0.2" fill-rule="evenodd" clip-rule="evenodd" d="M22.3111 4.26222C22.2703 4.41154 22.2477 4.57442 22.2477 4.74184C22.2477 5.2305 22.4423 5.66939 22.759 5.98612C23.0757 6.30284 23.5191 6.50193 24.0033 6.50193C24.4286 6.50193 24.8177 6.35261 25.1209 6.10376C25.2973 5.95897 25.4466 5.77798 25.5552 5.57437L22.3111 4.26222ZM26.7452 6.05851L34.2018 9.07645L2.84148 12.7821L7.79145 8.35251C8.0765 8.66018 8.41133 8.91809 8.78235 9.1217C9.35246 9.4339 10.004 9.61489 10.7008 9.61489C11.8003 9.61489 12.8002 9.16695 13.5197 8.44753C14.2436 7.72811 14.687 6.72816 14.687 5.62867C14.687 5.01784 14.5468 4.43416 14.2934 3.9093C14.1441 3.59257 13.954 3.303 13.7278 3.04057L15.4562 1.49314L21.1211 3.78713C21.017 4.09934 20.9627 4.42511 20.9627 4.75089C20.9627 5.58795 21.3021 6.34809 21.8541 6.9001C22.4061 7.4521 23.1662 7.79145 24.0033 7.79145C24.7317 7.79145 25.4059 7.53355 25.9308 7.09918C26.2701 6.8096 26.5507 6.45668 26.7452 6.05851ZM12.7731 3.88668L8.74163 7.49735C8.93166 7.69643 9.15337 7.86385 9.3977 7.99959C9.7823 8.21224 10.2257 8.32989 10.6963 8.32989C11.4428 8.32989 12.1215 8.02673 12.6102 7.53807C13.0989 7.04941 13.402 6.37071 13.402 5.62414C13.402 5.20335 13.307 4.80518 13.1396 4.45678C13.0446 4.24865 12.9179 4.05861 12.7731 3.88668ZM0.637976 13.0491L15.1983 0L36.885 8.75973C38.6541 12.488 39.0885 16.696 38.7491 20.7772C38.4143 24.7363 37.3374 28.546 35.0344 31.8219L0 35.79L0.637976 13.0491ZM36.1158 10.1397L1.88226 14.1848L1.31667 34.3557L21.4423 32.0753C21.4016 30.745 21.9084 29.4691 22.8495 28.5279C23.7228 27.6547 24.9263 27.1162 26.252 27.1162C27.528 27.1162 28.6953 27.6185 29.555 28.4329C30.2654 29.1071 30.7722 29.9939 30.9712 30.9893L34.3059 30.6093C36.152 27.8673 37.161 24.2657 37.4641 20.6686C37.7989 16.7684 37.2922 12.8907 36.1158 10.1397ZM22.7273 31.9259L29.7043 31.1341C29.546 30.4419 29.184 29.831 28.6908 29.3605C28.0619 28.7632 27.2067 28.3967 26.2611 28.3967C25.2838 28.3967 24.4014 28.7904 23.7635 29.4329C23.121 30.0708 22.7273 30.9531 22.7273 31.9259ZM9.33888 23.8902C8.4792 23.8902 7.69643 24.2386 7.13085 24.8041C6.56527 25.3697 6.21687 26.148 6.21687 27.0122C6.21687 27.8719 6.56527 28.6546 7.13085 29.2202C7.69643 29.7858 8.47467 30.1342 9.33888 30.1342C10.1986 30.1342 10.9813 29.7858 11.5469 29.2202C12.1125 28.6546 12.4609 27.8764 12.4609 27.0167C12.4609 26.157 12.1125 25.3743 11.5469 24.8087C10.9813 24.2386 10.2031 23.8902 9.33888 23.8902ZM6.23045 23.8947C5.43411 24.691 4.94092 25.7905 4.94092 27.0077C4.94092 28.2248 5.43411 29.3243 6.23045 30.1206C7.02679 30.917 8.12628 31.4101 9.34341 31.4101C10.5605 31.4101 11.66 30.917 12.4564 30.1206C13.2527 29.3243 13.7459 28.2248 13.7459 27.0077C13.7459 25.7905 13.2527 24.691 12.4564 23.8947C11.66 23.0984 10.5605 22.6052 9.34341 22.6052C8.12628 22.6052 7.02679 23.0984 6.23045 23.8947ZM17.7457 16.5738C16.8272 16.5738 16.0851 17.3158 16.0851 18.2344C16.0851 19.1529 16.8272 19.8949 17.7457 19.8949C18.6642 19.8949 19.4062 19.1529 19.4062 18.2344C19.4062 17.3158 18.6642 16.5738 17.7457 16.5738ZM17.7457 15.2933C16.1213 15.2933 14.8001 16.6145 14.8001 18.2389C14.8001 19.8632 16.1168 21.1844 17.7457 21.1844C19.37 21.1844 20.6912 19.8678 20.6912 18.2389C20.6912 16.6145 19.37 15.2933 17.7457 15.2933ZM30.1116 14.0807C28.908 14.0807 27.9397 15.0535 27.9397 16.2571C27.9397 17.4606 28.9125 18.4289 30.1116 18.4289C31.3151 18.4289 32.2879 17.4561 32.2879 16.2571C32.2879 15.0535 31.3151 14.0807 30.1116 14.0807ZM30.1116 12.8002C28.2022 12.8002 26.6547 14.3522 26.6547 16.2571C26.6547 18.1665 28.2067 19.7139 30.1116 19.7139C32.021 19.7139 33.5684 18.1665 33.5684 16.2571C33.5684 14.3522 32.0164 12.8002 30.1116 12.8002Z" fill="black"/>
</svg>