<svg width="22" height="33" viewBox="0 0 22 33" fill="none" xmlns="http://www.w3.org/2000/svg">
    <g opacity="0.2">
        <path d="M14.3327 11.6667H3.66602" stroke="black" stroke-miterlimit="10" stroke-linecap="round" stroke-linejoin="round"/>
        <path d="M17.6667 4.33331H5" stroke="black" stroke-miterlimit="10" stroke-linejoin="round"/>
        <path d="M14.3333 31.6667H21V11.6667L17.6667 4.33333V1.66667C17.6667 1.3 17.3667 1 17 1H5.66667C5.3 1 5 1.3 5 1.66667V4.33333L1 11.6667V31.6667H14.3333Z" stroke="black" stroke-miterlimit="10" stroke-linejoin="round"/>
        <path d="M14.334 31.6666V11.6666L17.6673 4.33331" stroke="black" stroke-miterlimit="10" stroke-linejoin="round"/>
        <path d="M7.66667 25.6667C6.26 25.6667 5 24.5267 5 23C5 20.74 7.3 19.6334 7.66667 17.6667C8.03333 19.6334 10.3333 20.74 10.3333 23C10.3333 24.5267 9.07333 25.6667 7.66667 25.6667Z" stroke="black" stroke-miterlimit="10" stroke-linecap="round" stroke-linejoin="round"/>
        <path d="M21 11.6667H17" stroke="black" stroke-miterlimit="10" stroke-linecap="round" stroke-linejoin="round"/>
    </g>
</svg>