<svg width="18" height="18" viewBox="0 0 18 18" fill="none" xmlns="http://www.w3.org/2000/svg">
    <path fill-rule="evenodd" clip-rule="evenodd" d="M9.00004 2.25002C6.60925 2.25002 4.52057 3.50863 3.32236 5.38908L5.0625 7.87501L0.495427 11.9243C0.179701 11.0064 0 10.0252 0 9.00001C0 4.02947 4.02944 0 9.00001 0C12.1111 0 14.8529 1.57873 16.4694 3.97857L14.7585 5.49627C13.5721 3.55363 11.4383 2.25002 9.00004 2.25002ZM12.9372 10.125L17.5043 6.07562C17.82 6.99358 17.9997 7.97483 17.9997 8.99997C17.9997 13.9705 13.9703 18 8.99971 18C5.88864 18 3.14678 16.4212 1.53027 14.0214L3.24119 12.5037C4.42763 14.4463 6.56139 15.75 8.99967 15.75C11.3905 15.75 13.4792 14.4913 14.6774 12.6109L12.9372 10.125Z" fill="#DEE3E9"/>
</svg>