<svg width="42" height="42" viewBox="0 0 42 42" fill="none" xmlns="http://www.w3.org/2000/svg">
    <g opacity="0.3">
        <path d="M13.5553 32.0816L9.88867 33.5927V18.7779L35.0739 8.40747V13.7156" stroke="#43464A" stroke-miterlimit="10" stroke-linecap="round" stroke-linejoin="round"/>
        <path d="M35.0741 8.40742L26.1852 1L1 11.3704V26.1852L9.8889 33.5926" stroke="#43464A" stroke-miterlimit="10" stroke-linecap="round" stroke-linejoin="round"/>
        <path d="M9.8889 18.7779L1 11.3705" stroke="#43464A" stroke-miterlimit="10" stroke-linecap="round" stroke-linejoin="round"/>
        <path d="M38.0377 18.7777L41.0007 32.111C41.0007 32.111 23.3251 40.4873 21.7414 40.9999L17.297 38.0369L14.334 24.7036L18.7784 27.6666C20.3621 27.154 38.0377 18.7777 38.0377 18.7777ZM38.0377 18.7777L33.5933 15.8147C33.5933 15.8147 15.9177 24.191 14.334 24.7036" stroke="#43464A" stroke-miterlimit="10" stroke-linecap="round" stroke-linejoin="round"/>
        <path d="M18.7773 27.6667L21.7403 41" stroke="#43464A" stroke-miterlimit="10" stroke-linecap="round" stroke-linejoin="round"/>
        <path d="M9.14699 13.5926C9.55609 13.5926 9.88773 13.261 9.88773 12.8519C9.88773 12.4428 9.55609 12.1111 9.14699 12.1111C8.73789 12.1111 8.40625 12.4428 8.40625 12.8519C8.40625 13.261 8.73789 13.5926 9.14699 13.5926Z" fill="#43464A"/>
        <path d="M15.0747 10.6299C15.4838 10.6299 15.8155 10.2983 15.8155 9.88918C15.8155 9.48008 15.4838 9.14844 15.0747 9.14844C14.6656 9.14844 14.334 9.48008 14.334 9.88918C14.334 10.2983 14.6656 10.6299 15.0747 10.6299Z" fill="#43464A"/>
        <path d="M21.7407 11.3703C22.1498 11.3703 22.4815 11.0387 22.4815 10.6296C22.4815 10.2205 22.1498 9.88885 21.7407 9.88885C21.3316 9.88885 21 10.2205 21 10.6296C21 11.0387 21.3316 11.3703 21.7407 11.3703Z" fill="#43464A"/>
        <path d="M24.7036 6.1854C25.1127 6.1854 25.4444 5.85376 25.4444 5.44466C25.4444 5.03556 25.1127 4.70392 24.7036 4.70392C24.2945 4.70392 23.9629 5.03556 23.9629 5.44466C23.9629 5.85376 24.2945 6.1854 24.7036 6.1854Z" fill="#43464A"/>
        <path d="M3.9634 20.2593C4.3725 20.2593 4.70414 19.9277 4.70414 19.5186C4.70414 19.1095 4.3725 18.7778 3.9634 18.7778C3.5543 18.7778 3.22266 19.1095 3.22266 19.5186C3.22266 19.9277 3.5543 20.2593 3.9634 20.2593Z" fill="#43464A"/>
        <path d="M6.18605 26.9261C6.59515 26.9261 6.9268 26.5945 6.9268 26.1854C6.9268 25.7763 6.59515 25.4446 6.18605 25.4446C5.77695 25.4446 5.44531 25.7763 5.44531 26.1854C5.44531 26.5945 5.77695 26.9261 6.18605 26.9261Z" fill="#43464A"/>
        <path d="M14.3345 21.7408C14.7436 21.7408 15.0752 21.4092 15.0752 21.0001C15.0752 20.591 14.7436 20.2593 14.3345 20.2593C13.9254 20.2593 13.5938 20.591 13.5938 21.0001C13.5938 21.4092 13.9254 21.7408 14.3345 21.7408Z" fill="#43464A"/>
        <path d="M23.2232 18.0371C23.6323 18.0371 23.9639 17.7055 23.9639 17.2964C23.9639 16.8873 23.6323 16.5557 23.2232 16.5557C22.8141 16.5557 22.4824 16.8873 22.4824 17.2964C22.4824 17.7055 22.8141 18.0371 23.2232 18.0371Z" fill="#43464A"/>
        <path d="M35.0747 26.9261C35.4838 26.9261 35.8155 26.5945 35.8155 26.1854C35.8155 25.7763 35.4838 25.4446 35.0747 25.4446C34.6656 25.4446 34.334 25.7763 34.334 26.1854C34.334 26.5945 34.6656 26.9261 35.0747 26.9261Z" fill="#43464A"/>
        <path d="M31.3716 32.8518C31.7807 32.8518 32.1123 32.5202 32.1123 32.1111C32.1123 31.702 31.7807 31.3704 31.3716 31.3704C30.9625 31.3704 30.6309 31.702 30.6309 32.1111C30.6309 32.5202 30.9625 32.8518 31.3716 32.8518Z" fill="#43464A"/>
        <path d="M24.7036 31.3703C25.1127 31.3703 25.4444 31.0387 25.4444 30.6296C25.4444 30.2205 25.1127 29.8889 24.7036 29.8889C24.2945 29.8889 23.9629 30.2205 23.9629 30.6296C23.9629 31.0387 24.2945 31.3703 24.7036 31.3703Z" fill="#43464A"/>
    </g>
</svg>