<svg width="80" height="80" viewBox="0 0 80 80" fill="none" xmlns="http://www.w3.org/2000/svg">
    <path d="M50.0187 50.9303C49.4001 50.8796 46.1387 50.5889 44.592 50.4517L42.0814 44.2077C41.6947 43.2436 40.892 42.645 39.9881 42.645C39.0335 42.645 38.2202 43.3103 37.9414 44.2583C37.7082 44.8916 36.3135 48.7503 35.7001 50.4503L29.9081 50.9409C29.0121 51.0168 28.3028 51.5835 28.0587 52.4182C27.8 53.3023 28.1187 54.3023 28.8334 54.8502C29.2081 55.1382 31.9307 57.1343 33.2813 58.1222L31.6267 63.7981C31.272 64.8448 31.5254 65.5222 31.7999 65.9048C32.432 66.7862 33.8866 66.8715 34.9319 66.1461C35.4652 65.7755 38.5199 63.5928 39.9772 62.5514C41.4292 63.5888 44.4625 65.7541 45.0186 66.1408C45.4945 66.474 46.0718 66.6661 46.6012 66.6661C47.2265 66.6661 47.7906 66.4008 48.1465 65.9381C48.4318 65.5687 48.7145 64.9087 48.4412 63.8661C48.1639 62.8102 47.3798 59.6461 47.0039 58.1208L51.1118 54.9315C51.8544 54.3541 52.1798 53.3168 51.9012 52.4129C51.6387 51.5557 50.9066 50.9876 50.0187 50.9303ZM44.684 56.5449C44.2681 56.8676 44.0814 57.4063 44.2067 57.9169C44.2067 57.9169 44.9908 61.1036 45.524 63.2316C43.82 62.021 40.7534 59.8275 40.7534 59.8275C40.5228 59.6608 40.2494 59.5782 39.9775 59.5782C39.7055 59.5782 39.4335 59.6608 39.2016 59.8275C39.2016 59.8275 36.359 61.8608 34.6043 63.1102L36.1029 57.9716C36.2602 57.433 36.0629 56.8543 35.6108 56.5223C35.6096 56.5223 32.9882 54.6049 31.4695 53.4849L36.7761 53.0356C37.2961 52.9915 37.7414 52.6502 37.9175 52.1596C37.9175 52.1596 39.2896 48.3623 40.0416 46.2837L42.423 52.2049C42.6109 52.6702 43.043 52.9917 43.5415 53.0356C43.5415 53.0356 46.7562 53.3223 48.6256 53.4862L44.684 56.5449Z" fill="#0057A5"/>
    <path d="M40.0001 31.9998C26.7669 31.9998 16.0002 42.7664 16.0002 55.9996C16.0002 69.2327 26.7669 79.9994 40.0001 79.9994C53.2332 79.9994 63.9999 69.2327 63.9999 55.9996C63.9999 42.7664 53.2332 31.9998 40.0001 31.9998ZM40.0001 77.3327C28.2375 77.3327 18.6669 67.7621 18.6669 55.9996C18.6669 44.237 28.2375 34.6665 40.0001 34.6665C51.7626 34.6665 61.3332 44.237 61.3332 55.9996C61.3332 67.7621 51.7626 77.3327 40.0001 77.3327Z" fill="#C7CCD1"/>
    <path d="M42.4467 29.553C42.7067 29.813 43.0481 29.9436 43.3894 29.9436C43.7308 29.9436 44.072 29.813 44.332 29.553L66.8731 7.01195C67.3945 6.49054 67.3945 5.64664 66.8731 5.12665C66.3531 4.60525 65.509 4.60525 64.9878 5.12665L42.4467 27.6677C41.9253 28.1891 41.9253 29.0318 42.4467 29.553Z" fill="#C7CCD1"/>
    <path d="M79.6091 8.39056L71.6091 0.390622C71.3598 0.139999 71.0212 0 70.6665 0H9.33352C8.97884 0 8.64024 0.139999 8.39087 0.390622L0.390934 8.39056C-0.130312 8.91196 -0.130312 9.75461 0.390934 10.2759L23.6828 33.5677C24.2028 34.0877 25.0468 34.0877 25.5681 33.5677C26.0881 33.0463 26.0881 32.2024 25.5681 31.6824L3.21904 9.33321L5.33371 7.21854L29.0682 30.953C29.3282 31.213 29.6696 31.3437 30.0109 31.3437C30.3523 31.3437 30.6935 31.213 30.9535 30.953C31.4735 30.4318 31.4735 29.5877 30.9535 29.0677L7.21901 5.33324L9.8857 2.66654H70.1146L72.7813 5.33324L49.0573 29.0571C48.536 29.5785 48.536 30.4212 49.0573 30.9424C49.3173 31.2024 49.6587 31.333 49.9999 31.333C50.3413 31.333 50.6826 31.2024 50.9426 30.9424L74.6664 7.21869L76.7811 9.33336L54.4186 31.6958C53.8986 32.2171 53.8986 33.0599 54.4186 33.5811C54.68 33.8411 55.0213 33.9718 55.3613 33.9718C55.7027 33.9718 56.0439 33.8411 56.3053 33.5811L79.6091 10.276C80.1303 9.75461 80.1303 8.91196 79.6091 8.39056Z" fill="#C7CCD1"/>
    <path d="M53.3334 10.6666H26.6669C25.9296 10.6666 25.3336 11.264 25.3336 11.9999C25.3336 12.7358 25.9296 13.3332 26.6669 13.3332H53.3334C54.0708 13.3332 54.6667 12.7358 54.6667 11.9999C54.6667 11.264 54.0706 10.6666 53.3334 10.6666Z" fill="#C7CCD1"/>
    <path d="M13.1135 5.11322C12.5921 5.63463 12.5921 6.47728 13.1135 6.99852L35.6827 29.5677C35.9427 29.8277 36.2841 29.9583 36.6253 29.9583C36.9667 29.9583 37.3067 29.8277 37.568 29.5677C38.088 29.0463 38.088 28.2024 37.568 27.6824L14.9989 5.11322C14.4775 4.59198 13.6349 4.59198 13.1135 5.11322Z" fill="#C7CCD1"/>
</svg>