<svg width="332" height="270" viewBox="0 0 332 270" fill="none" xmlns="http://www.w3.org/2000/svg">
    <path fill-rule="evenodd" clip-rule="evenodd" d="M411.314 181.837C414.801 195.357 392.777 255.454 391.58 272.31C391.15 278.36 373.565 286.578 378.402 272.31C382.764 259.446 388.585 223.518 387.141 210.685C385.083 192.3 365.225 190.273 340.407 175.303C325.449 166.602 292.276 137.63 286.286 106.381C263.311 -13.4705 387.955 21.8642 404.741 50.4469C421.788 79.4507 401.793 124.11 382.964 169.643C340.883 280.824 336.414 271.749 336.414 271.749C369.295 191.287 327.998 156.701 242.578 136.351C187.412 125.794 147.098 120.228 86.1884 114.863C74.7928 113.366 31.9137 111.869 28.8728 105.164C22.9139 91.9878 25.3098 91.0834 30.9001 83.4894C41.5431 69.0499 36.9357 33.9647 29.4564 33.1538C19.827 30.0507 0.38397 22.1916 2.3365e-05 31.8907C6.28139 44.9736 23.8047 47.8896 31.4068 40.6542C41.5277 27.7585 20.4106 19.9462 22.1768 12.6485C27.7363 13.7868 34.5245 23.8289 42.5413 22.0825C46.4576 21.2248 52.7082 18.418 56.2252 16.9211C67.1446 12.2274 72.8731 17.919 78.0026 22.5971C89.4596 23.7978 86.8948 15.2058 94.6659 12.6485C95.357 22.6906 84.6833 44.1004 88.6303 42.198C98.9968 45.1763 126.626 20.5699 113.341 18.5428C102.698 18.5428 93.6984 28.2731 87.6166 32.3897C77.9873 39.0949 87.6166 56.6375 86.0962 80.9009C90.4579 156.529 127.132 181.977 139.265 194.405C146.453 201.766 152.934 210.124 160.075 277.222C169.228 280.06 163.546 196.557 180.486 193.423C190.929 190.273 182.62 270.486 185.369 281.089C188.134 291.786 199.929 284.442 198.04 282.118C198.715 279.358 199.053 256.842 209.696 220.197C288.221 -13.5329 95.2188 82.429 109.394 40.1241C121.558 19.494 206.364 18.6363 228.832 18.574C266.613 18.496 322.807 4.10325 337.136 2.73103C352.448 1.26525 373.442 -2.08734 387.141 2.73103C396.417 6.00565 414.954 19.4316 418.809 29.9104C422.449 39.7966 421.573 63.0932 422.142 75.7395C424.399 126.325 414.54 195.435 424 241.872C414.54 195.435 424.399 126.309 422.142 75.7395C421.573 63.0932 422.433 39.7966 418.809 29.9104C414.954 19.4316 396.417 6.00565 387.141 2.73103C373.442 -2.08734 352.448 1.26525 337.136 2.73103C322.807 4.10325 266.613 18.4804 228.832 18.574C206.364 18.6363 121.558 19.4784 109.394 40.1241C95.2034 82.429 288.221 -13.5329 209.696 220.197C199.053 256.826 198.731 279.358 198.04 282.118C199.929 284.442 188.134 291.786 185.369 281.089C182.62 270.501 190.944 190.273 180.486 193.423C163.546 196.557 169.228 280.06 160.075 277.222C152.934 210.108 146.453 201.766 139.265 194.405C127.132 181.977 90.4579 156.529 86.0962 80.9009C87.6166 56.6531 77.9873 39.0949 87.6166 32.3897C93.6984 28.2575 102.698 18.5428 113.341 18.5428C126.626 20.5699 98.9968 45.1763 88.6303 42.198C84.6833 44.1004 95.357 22.6906 94.6659 12.6485C86.8948 15.2058 89.4442 23.7978 78.0026 22.5971C72.8731 17.9346 67.1292 12.2274 56.2252 16.9211C52.7082 18.418 46.4576 21.2248 42.5413 22.0825C34.5091 23.8445 27.7363 13.7868 22.1768 12.6485C20.4106 19.9462 41.5277 27.7585 31.4068 40.6542C23.8047 47.874 6.26603 44.9736 2.3365e-05 31.8907C0.38397 22.2072 19.8424 30.0507 29.4564 33.1538C36.9357 33.9647 41.5431 69.0343 30.9001 83.4894C25.3098 91.0678 22.8986 91.9878 28.8728 105.164C31.9137 111.869 74.7928 113.366 86.1884 114.863C147.113 120.243 187.412 125.794 242.578 136.351C327.998 156.701 369.311 191.287 336.414 271.749C336.414 271.749 340.868 280.824 382.964 169.643C401.793 124.095 421.788 79.4507 404.741 50.4469C387.955 21.8798 263.311 -13.4705 286.286 106.396C292.276 137.645 325.449 166.618 340.407 175.319C365.225 190.273 385.083 192.316 387.141 210.701C388.585 223.518 382.764 259.461 378.402 272.326C373.565 286.594 391.15 278.376 391.58 272.326C392.777 255.454 414.785 195.341 411.314 181.837Z" stroke="#2571B5" stroke-width="1.6"/>
</svg>