<svg width="76" height="80" viewBox="0 0 76 80" fill="none" xmlns="http://www.w3.org/2000/svg">
    <path d="M56.6641 49.3333C56.6641 48.5973 56.0668 48 55.3308 48H47.3308C46.5949 48 45.9976 48.5973 45.9976 49.3333C45.9976 50.0692 46.5949 50.6666 47.3308 50.6666H55.3308C56.0668 50.6667 56.6641 50.0694 56.6641 49.3333Z" fill="#C7CCD1"/>
    <path d="M51.3307 14.6667V8.00003C51.3307 7.26409 50.7334 6.66675 49.9975 6.66675C49.2615 6.66675 48.6642 7.26409 48.6642 8.00003V14.6667C48.6642 18.3427 51.6548 21.3335 55.3309 21.3335H67.3309V46.6667C67.3309 47.4027 67.9282 48 68.6642 48C69.4001 48 69.9975 47.4027 69.9975 46.6667V20C69.9975 19.2641 69.4001 18.6667 68.6642 18.6667H55.3309C53.1254 18.6667 51.3307 16.8721 51.3307 14.6667Z" fill="#C7CCD1"/>
    <path d="M55.3307 32H44.664C43.928 32 43.3307 32.5973 43.3307 33.3333C43.3307 34.0692 43.928 34.6666 44.664 34.6666H55.3307C56.0666 34.6666 56.664 34.0692 56.664 33.3333C56.6641 32.5973 56.0668 32 55.3307 32Z" fill="#C7CCD1"/>
    <path d="M40.6642 33.3333C40.6642 32.5973 40.0669 32 39.331 32H31.331C30.595 32 29.9977 32.5973 29.9977 33.3333C29.9977 34.0692 30.595 34.6666 31.331 34.6666H39.331C40.0669 34.6667 40.6642 34.0694 40.6642 33.3333Z" fill="#C7CCD1"/>
    <path d="M31.3307 40C30.5948 40 29.9974 40.5973 29.9974 41.3333C29.9974 42.0692 30.5948 42.6666 31.3307 42.6666H33.9974C34.7334 42.6666 35.3307 42.0692 35.3307 41.3333C35.3307 40.5973 34.7334 40 33.9974 40H31.3307Z" fill="#C7CCD1"/>
    <path d="M31.3307 26.6668H44.664C45.3999 26.6668 45.9973 26.0695 45.9973 25.3335C45.9973 24.5976 45.3999 24.0002 44.664 24.0002H31.3307C30.5948 24.0002 29.9974 24.5976 29.9974 25.3335C29.9974 26.0695 30.5948 26.6668 31.3307 26.6668Z" fill="#C7CCD1"/>
    <path d="M39.3307 42.6668H52.664C53.4 42.6668 53.9973 42.0695 53.9973 41.3335C53.9973 40.5976 53.4 40.0002 52.664 40.0002H39.3307C38.5948 40.0002 37.9974 40.5976 37.9974 41.3335C37.9974 42.0695 38.5948 42.6668 39.3307 42.6668Z" fill="#C7CCD1"/>
    <path d="M47.3307 56C46.5948 56 45.9974 56.5973 45.9974 57.3333C45.9974 58.0692 46.5948 58.6666 47.3307 58.6666H49.9974C50.7334 58.6666 51.3307 58.0692 51.3307 57.3333C51.3307 56.5973 50.7334 56 49.9974 56H47.3307Z" fill="#C7CCD1"/>
    <path d="M41.9974 48H31.3307C30.5948 48 29.9974 48.5973 29.9974 49.3333C29.9974 50.0692 30.5948 50.6666 31.3307 50.6666H41.9974C42.7334 50.6666 43.3307 50.0692 43.3307 49.3333C43.3307 48.5973 42.7334 48 41.9974 48Z" fill="#C7CCD1"/>
    <path d="M41.9974 56H31.3307C30.5948 56 29.9974 56.5973 29.9974 57.3333C29.9974 58.0692 30.5948 58.6666 31.3307 58.6666H41.9974C42.7334 58.6666 43.3307 58.0692 43.3307 57.3333C43.3307 56.5973 42.7334 56 41.9974 56Z" fill="#C7CCD1"/>
    <path d="M73.7428 54.9213L71.076 52.2546C69.0267 50.2052 65.904 50.2093 63.8574 52.2546L46.3881 69.724C46.1387 69.9734 45.9974 70.3134 45.9974 70.6666V78.6666C45.9974 79.4026 46.5948 79.9999 47.3307 79.9999H55.3307C55.684 79.9999 56.024 79.8587 56.2734 79.6093L73.7428 62.1399C75.8668 60.0159 75.8668 57.0467 73.7428 54.9213ZM62.1334 57.7493L64.2481 59.864L52.664 71.4481L50.5493 69.3334L62.1334 57.7493ZM48.6642 77.3332V71.2185L54.7788 77.3332H48.6642ZM56.6642 75.4479L54.5495 73.3332L66.1335 61.7492L68.2482 63.8638L56.6642 75.4479ZM71.8574 60.2546L70.1334 61.9787L64.0187 55.864L65.7428 54.1399C66.796 53.0879 68.1321 53.0826 69.1907 54.1399L71.8574 56.8067C72.936 57.8867 72.936 59.1759 71.8574 60.2546Z" fill="#0057A5"/>
    <path d="M41.9975 77.3333H7.33075C5.12543 77.3333 3.33075 75.5386 3.33075 73.3333V6.66672C3.33075 4.46141 5.12543 2.66672 7.33075 2.66672H49.4454L62.3881 15.6094C62.9093 16.1308 63.7522 16.1308 64.2734 15.6094C64.7948 15.0881 64.7948 14.2453 64.2734 13.7241L50.9401 0.390625C50.6907 0.14 50.3507 0 49.9975 0H7.33075C3.65481 0 0.664185 2.99062 0.664185 6.66672V73.3334C0.664185 77.0094 3.65481 80.0002 7.3309 80.0002H41.9976C42.7336 80.0002 43.3309 79.4028 43.3309 78.6669C43.3309 77.9309 42.7334 77.3333 41.9975 77.3333Z" fill="#C7CCD1"/>
    <path d="M41.9974 64H31.3307C30.5948 64 29.9974 64.5973 29.9974 65.3333C29.9974 66.0692 30.5948 66.6666 31.3307 66.6666H41.9974C42.7334 66.6666 43.3307 66.0692 43.3307 65.3333C43.3307 64.5973 42.7334 64 41.9974 64Z" fill="#C7CCD1"/>
    <path d="M24.6642 25.3333C24.6642 24.5973 24.0669 24 23.331 24H15.331C14.595 24 13.9977 24.5973 13.9977 25.3333V33.3333C13.9977 34.0692 14.595 34.6666 15.331 34.6666H23.331C24.0669 34.6666 24.6642 34.0692 24.6642 33.3333V25.3333ZM21.9975 32H16.6642V26.6667H21.9975V32Z" fill="#C7CCD1"/>
    <path d="M15.3307 66.6667H23.3307C24.0667 66.6667 24.664 66.0693 24.664 65.3334V57.3334C24.664 56.5975 24.0667 56.0001 23.3307 56.0001H15.3307C14.5948 56.0001 13.9974 56.5975 13.9974 57.3334V65.3334C13.9974 66.0693 14.5948 66.6667 15.3307 66.6667ZM16.6642 58.6667H21.9974V64H16.6642V58.6667Z" fill="#C7CCD1"/>
    <path d="M17.0549 50.276C17.3055 50.5266 17.6455 50.6666 17.9976 50.6666C18.0416 50.6666 18.0843 50.6654 18.1296 50.6599C18.5269 50.6213 18.8855 50.4052 19.1069 50.0732L24.4402 42.0732C24.8482 41.4599 24.6829 40.6318 24.0708 40.2238C23.4562 39.8144 22.6308 39.9812 22.2215 40.5932L17.7908 47.2399L16.2735 45.724C15.7523 45.2026 14.9094 45.2026 14.3882 45.724C13.8669 46.2454 13.8668 47.088 14.3882 47.6093L17.0549 50.276Z" fill="#0057A5"/>
</svg>