<svg width="80" height="80" viewBox="0 0 80 80" fill="none" xmlns="http://www.w3.org/2000/svg">
    <path d="M15.3339 52.7035L5.84644 58.1792C5.20912 58.5471 4.99054 59.3618 5.35849 60.0005C5.6052 60.4284 6.05314 60.6672 6.51437 60.6672C6.73967 60.6672 6.96903 60.6098 7.17965 60.4886L16.6671 55.0142C17.3044 54.6462 17.523 53.8302 17.1551 53.1929C16.7871 52.5543 15.9712 52.3355 15.3339 52.7035Z" fill="#0057A5"/>
    <path d="M18.667 40.0014C18.667 39.2655 18.0697 38.6682 17.3338 38.6682L1.33321 38.6667C0.597313 38.6667 0 39.2641 0 40C0 40.7373 0.597313 41.3332 1.33321 41.3332L17.3338 41.3346C18.0697 41.3347 18.667 40.7374 18.667 40.0014Z" fill="#0057A5"/>
    <path d="M22.8482 12.9601C23.095 13.3881 23.5429 13.6268 24.0041 13.6268C24.2294 13.6268 24.46 13.5695 24.6694 13.4482C25.3067 13.0803 25.5253 12.2642 25.1574 11.6271L21.8216 5.84877C21.4522 5.21146 20.6363 4.99147 20.0003 5.36083C19.3617 5.72878 19.1444 6.54483 19.5123 7.18214L22.8482 12.9601Z" fill="#0057A5"/>
    <path d="M5.84768 21.8223L19.3337 29.6113C19.5431 29.7325 19.7723 29.7899 19.999 29.7899C20.4604 29.7899 20.9083 29.5513 21.1549 29.1232C21.5228 28.4859 21.3055 27.67 20.6669 27.3033L7.1809 19.5131C6.54499 19.1437 5.72629 19.3625 5.35974 20.001C4.99179 20.6385 5.20912 21.4544 5.84768 21.8223Z" fill="#0057A5"/>
    <path d="M58.8437 29.1233C59.0904 29.5513 59.5384 29.79 59.9996 29.79C60.2249 29.79 60.4543 29.7327 60.6649 29.6114L74.1536 21.8251C74.7921 21.4558 75.0095 20.6411 74.6415 20.0026C74.2736 19.3653 73.4575 19.1467 72.8202 19.5146L59.3315 27.3022C58.693 27.6701 58.4756 28.486 58.8437 29.1233Z" fill="#0057A5"/>
    <path d="M55.3319 13.4481C55.5425 13.5695 55.7719 13.6266 55.9972 13.6266C56.4586 13.6266 56.9065 13.3881 57.1531 12.96L60.4888 7.18165C60.8568 6.54434 60.6382 5.72844 60.0009 5.36034C59.3609 4.99098 58.5477 5.21097 58.1796 5.84828L54.8438 11.6266C54.476 12.2642 54.6932 13.0801 55.3319 13.4481Z" fill="#0057A5"/>
    <path d="M53.7533 77.3996C53.7173 77.3875 50.0241 76.1382 47.6083 73.7224C45.2137 71.3278 43.9991 68.9533 43.9991 66.6654V42.6666C43.9991 42.3934 44.055 40 45.999 40C47.4295 40 47.9948 42.7719 48.0029 42.7705L49.3361 60.1017C49.3921 60.8337 50.0228 61.3883 50.7681 61.3283C51.5013 61.2724 52.0521 60.631 51.9948 59.8964L50.6469 42.4466C50.3309 40.5481 48.9963 37.3336 45.9991 37.3336C42.3073 37.3336 41.3326 40.8228 41.3326 42.6666V66.6654C41.3326 69.6867 42.8099 72.6945 45.723 75.6076C48.5788 78.4648 52.7347 79.8715 52.9106 79.93C53.0506 79.9768 53.1933 79.998 53.3319 79.998C53.8906 79.998 54.4106 79.6447 54.5971 79.086C54.8305 78.3876 54.452 77.633 53.7533 77.3996Z" fill="#C7CCD1"/>
    <path d="M33.9997 37.3336C31.0025 37.3336 29.6679 40.5481 29.3373 42.564L28.0041 59.8964C27.9467 60.631 28.4973 61.2722 29.2307 61.3283C29.9507 61.383 30.6066 60.8351 30.6627 60.1017L31.9812 42.8866C31.9865 42.8572 32.5532 40 33.9997 40C35.8755 40 35.9955 42.2267 35.9996 42.6666V66.6654C35.9996 68.9533 34.785 71.3278 32.3904 73.7224C29.9879 76.1249 26.2801 77.3875 26.244 77.4008C25.5467 77.6355 25.1694 78.3901 25.4026 79.0874C25.5893 79.6447 26.1093 79.998 26.6666 79.998C26.8066 79.998 26.948 79.9754 27.088 79.93C27.2639 79.8715 31.4198 78.4648 34.2756 75.6076C37.1888 72.6945 38.666 69.6865 38.666 66.6654V42.6666C38.666 40.8228 37.6914 37.3336 33.9997 37.3336Z" fill="#C7CCD1"/>
    <path d="M76.7975 77.5983L60.7836 65.5883C59.9396 64.9724 59.0264 62.7925 58.6505 61.1352L54.6386 34.406C54.348 32.9501 54.0734 31.5421 53.8081 30.1876C51.4296 18.0162 49.9936 10.6686 45.3326 10.6686C42.5286 10.6686 41.3328 11.8645 41.3328 14.6684C41.3328 17.355 42.6154 34.0594 42.67 34.77C42.726 35.502 43.3686 36.0526 44.102 35.9967C44.8352 35.9407 45.386 35.2994 45.3287 34.5647C45.3154 34.3914 43.9993 17.2536 43.9993 14.6684C43.9993 13.3352 44.0247 13.3352 45.3326 13.3352C47.7977 13.3352 49.4456 21.7694 51.1923 30.6996C51.4563 32.0569 51.7322 33.4688 52.0136 34.8647L56.0308 61.626C56.1361 62.09 57.1148 66.2137 59.1986 67.7324L75.1978 79.7318C75.4377 79.9118 75.719 79.9985 75.9963 79.9985C76.4016 79.9985 76.803 79.8144 77.0642 79.4652C77.5054 78.8756 77.3867 78.0395 76.7975 77.5983Z" fill="#C7CCD1"/>
    <path d="M72.8177 60.4913C73.0283 60.6127 73.2577 60.6699 73.483 60.6699C73.9444 60.6699 74.3923 60.4313 74.6389 60.0032C75.0068 59.3659 74.7895 58.55 74.1509 58.1819L64.6647 52.7035C64.0247 52.3356 63.2115 52.5542 62.8434 53.1929C62.4754 53.8302 62.6928 54.6448 63.3313 55.0142L72.8177 60.4913Z" fill="#0057A5"/>
    <path d="M78.6666 38.6696H62.6648C61.9289 38.6696 61.3315 39.2669 61.3315 40.0028C61.3315 40.7387 61.9289 41.336 62.6648 41.336H78.6666C79.4025 41.336 79.9998 40.7401 79.9998 40.0028C80 39.2667 79.4027 38.6696 78.6666 38.6696Z" fill="#0057A5"/>
    <path d="M41.3327 1.33541C41.3327 0.599511 40.7354 0.00219727 39.9995 0.00219727C39.2636 0.00219727 38.6663 0.599511 38.6663 1.33541V5.33521C38.6663 6.07111 39.2636 6.66842 39.9995 6.66842C40.7354 6.66842 41.3327 6.07111 41.3327 5.33521V1.33541Z" fill="#0057A5"/>
    <path d="M34.6662 10.6682C30.005 10.6682 28.5692 18.0158 26.1907 30.1872C25.9254 31.5418 25.6507 32.9497 25.3481 34.4697L21.3442 61.1656C21.1336 62.8256 20.099 65.0308 19.2003 65.5987L3.2011 77.5981C2.61175 78.0395 2.49316 78.8754 2.93439 79.4647C3.19578 79.8141 3.59701 79.998 4.00231 79.998C4.27964 79.998 4.56087 79.9113 4.80086 79.7313L20.7068 67.7959C22.5481 66.6454 23.7546 63.3588 23.9852 61.5295L27.973 34.9282C28.2662 33.4683 28.5423 32.0563 28.8062 30.6991C30.5528 21.7689 32.2007 13.3346 34.6659 13.3346C35.9738 13.3346 35.9991 13.3346 35.9991 14.6679C35.9991 17.253 34.6832 34.3909 34.6698 34.5642C34.6125 35.2988 35.1631 35.9401 35.8965 35.9961C36.6217 36.0508 37.2711 35.5029 37.3284 34.7695C37.3831 34.0589 38.6657 17.3544 38.6657 14.6679C38.666 11.8642 37.4701 10.6682 34.6662 10.6682Z" fill="#C7CCD1"/>
</svg>