<svg width="80" height="80" viewBox="0 0 80 80" fill="none" xmlns="http://www.w3.org/2000/svg">
    <g clip-path="url(#clip0_1146_162)">
        <path d="M21.3162 36.7874C21.3162 37.5007 21.5948 38.1701 22.0988 38.6727L23.0415 39.6154C24.3014 40.874 25.9735 41.5674 27.7547 41.5674C29.5361 41.5674 31.2094 40.8741 32.4694 39.6154L39.1107 32.974C41.7413 35.1714 45.0253 36.3673 48.492 36.3673H48.4987C52.4173 36.3646 56.1054 34.8353 58.8801 32.0594C59.4015 31.5381 59.4015 30.6941 58.8801 30.1741C58.3587 29.6527 57.516 29.6527 56.9948 30.1741C54.7228 32.4461 51.7042 33.6993 48.4975 33.7008H48.4934C45.2894 33.7008 42.2775 32.4528 40.0121 30.1875C39.4907 29.6675 38.6468 29.6675 38.1268 30.1875L30.5828 37.7301C29.0734 39.2407 26.4375 39.2407 24.9269 37.7301L23.9843 36.7874L40.0121 20.7596C41.5068 19.2649 42.9268 19.2649 44.7253 19.2649C46.6506 19.2649 49.0494 19.2649 51.3253 16.989L55.0959 13.217C55.6171 12.6958 55.6171 11.8517 55.0959 11.3317C54.5759 10.8103 53.7318 10.8103 53.2106 11.3317L49.44 15.1037C47.9441 16.5984 46.5241 16.5984 44.7253 16.5984C42.8 16.5984 40.4027 16.5984 38.1268 18.8743L22.1001 34.9007C21.5948 35.4048 21.3162 36.0742 21.3162 36.7874Z" fill="#C7CCD1"/>
        <path d="M12.0002 14.6703C13.4708 14.6703 14.6669 13.4744 14.6669 12.0036C14.6669 10.533 13.471 9.33691 12.0002 9.33691C10.5296 9.33691 9.3335 10.5328 9.3335 12.0036C9.3335 13.4744 10.5296 14.6703 12.0002 14.6703Z" fill="#C7CCD1"/>
        <path d="M24.9269 18.8744L28.6975 22.645C28.9587 22.9064 29.3001 23.0356 29.6401 23.0356C29.9815 23.0356 30.3228 22.9062 30.5828 22.645C31.1042 22.125 31.1042 21.2809 30.5828 20.7597L26.8122 16.9891C26.2922 16.4678 25.4481 16.4678 24.9269 16.9891C24.4069 17.5091 24.4069 18.353 24.9269 18.8744Z" fill="#0057A5"/>
        <path d="M67.9998 9.33706C69.4692 9.33706 70.6665 8.14113 70.6665 6.67036C70.6665 5.19975 69.4692 4.00366 67.9998 4.00366C66.5305 4.00366 65.3331 5.19959 65.3331 6.67036C65.3331 8.14097 66.5305 9.33706 67.9998 9.33706Z" fill="#C7CCD1"/>
        <path d="M71.0571 28.3942C68.8904 30.5609 68.1465 34.0901 67.4277 37.5035C66.7904 40.5329 66.1304 43.6675 64.5251 45.2728L62.6384 47.1581C62.1184 47.6795 62.1184 48.5234 62.6384 49.0434C62.8997 49.3048 63.2411 49.434 63.5825 49.434C63.9225 49.434 64.2639 49.3047 64.5251 49.0434L66.4104 47.1581C68.5757 44.9928 69.3184 41.4649 70.0371 38.0529C70.6757 35.0209 71.3371 31.8862 72.9424 30.2797C73.4638 29.7597 73.4638 28.9156 72.9424 28.3944C72.4211 27.8728 71.5785 27.8728 71.0571 28.3942Z" fill="#C7CCD1"/>
        <path d="M79.6092 28.3943L57.8853 6.67036L62.2759 2.27977C62.7973 1.75837 62.7973 0.91572 62.2759 0.394474C61.7545 -0.126771 60.9118 -0.126771 60.3906 0.394474L55.0573 5.72771C54.5359 6.24912 54.5359 7.09177 55.0573 7.61301L77.7239 30.2796C77.9839 30.5396 78.3253 30.6702 78.6665 30.6702C79.0078 30.6702 79.3492 30.5396 79.6092 30.2796C80.1304 29.7582 80.1304 28.9155 79.6092 28.3943Z" fill="#C7CCD1"/>
        <path d="M49.4399 39.6154C48.9185 39.0954 48.0758 39.0954 47.5546 39.6154C47.0333 40.1368 47.0333 40.9807 47.5546 41.5021L61.6959 55.6434C62.7359 56.6834 62.7359 58.3754 61.6959 59.4154C60.6586 60.4527 58.9653 60.454 57.9239 59.4154L43.7826 45.2729C43.2612 44.7515 42.4173 44.7515 41.8973 45.2729C41.3759 45.7943 41.3759 46.6382 41.8973 47.1582L59.8104 65.0713C60.8504 66.1113 60.8504 67.8033 59.8104 68.8419C58.7704 69.8805 57.0798 69.8833 56.0384 68.8431L39.0693 51.8726C38.5479 51.3512 37.704 51.3512 37.184 51.8726C36.6626 52.3926 36.6626 53.2367 37.184 53.7579L52.268 68.8419C53.308 69.8819 53.308 71.5739 52.268 72.6139C51.26 73.6219 49.5054 73.6219 48.4974 72.6126L46.6107 70.7273H46.6093L34.3547 58.4728C33.8333 57.9515 32.9894 57.9515 32.4694 58.4728C31.9482 58.9927 31.9482 59.8368 32.4694 60.3581L44.7252 72.6139C45.2293 73.118 45.5066 73.7872 45.5066 74.5006C45.5066 75.2126 45.2293 75.882 44.7252 76.3859C43.6879 77.4232 41.9946 77.4259 40.9546 76.3845L18.2762 53.7273C14.8189 50.27 14.0683 45.9114 13.4056 42.0648C12.8483 38.8288 12.3216 35.7728 10.2763 33.7275C9.75489 33.2061 8.91224 33.2061 8.39099 33.7275C7.86975 34.2489 7.86959 35.0915 8.39099 35.6128C9.8377 37.0595 10.2736 39.5887 10.7777 42.518C11.471 46.5447 12.335 51.5566 16.3909 55.6126L39.0693 78.2712C40.1079 79.3098 41.4734 79.8312 42.8399 79.8312C44.2052 79.8298 45.572 79.3098 46.6105 78.2712C47.3679 77.5126 47.8705 76.5671 48.0732 75.5379C50.0279 76.4806 52.5732 76.082 54.1531 74.4993C54.9117 73.7408 55.4131 72.794 55.6158 71.7647C57.5984 72.7167 60.0543 72.3687 61.6957 70.7273C63.7757 68.6488 63.7757 65.266 61.6957 63.186L61.1904 62.6793C62.0664 62.446 62.8957 61.986 63.5824 61.3007C65.661 59.2207 65.661 55.8367 63.5824 53.7581L49.4399 39.6154Z" fill="#0057A5"/>
        <path d="M24.9428 11.0609L16.9428 3.06097C16.4216 2.53957 15.5788 2.53957 15.0575 3.06097C14.5361 3.58222 14.5361 4.42503 15.0575 4.94627L22.1148 12.0036L0.390934 33.7274C-0.130311 34.2488 -0.130311 35.0915 0.390934 35.6127C0.650932 35.8727 0.992336 36.0034 1.33358 36.0034C1.67483 36.0034 2.01623 35.8727 2.27623 35.6127L24.9428 12.9464C25.4642 12.425 25.4642 11.5823 24.9428 11.0609Z" fill="#C7CCD1"/>
        <path d="M32.7934 77.0899C32.0507 77.4792 30.7828 77.5258 29.6401 76.3858C28.4975 75.2418 28.5068 73.9126 28.8775 73.3338C29.2454 72.7605 29.1228 72.0032 28.5907 71.5752C28.0614 71.1473 27.2948 71.1873 26.8122 71.6712C25.7708 72.7112 24.0775 72.7098 23.0402 71.6712C22.0016 70.6312 22.0016 68.9392 23.0402 67.8992C23.3016 67.6392 23.4308 67.2978 23.4308 66.9565C23.4308 66.6153 23.3014 66.2751 23.0402 66.0139C22.5202 65.4939 21.6761 65.4939 21.1549 66.0139L20.2122 66.9565C19.1736 67.9965 17.4802 67.9965 16.4416 66.9565C15.403 65.9165 15.403 64.2245 16.4416 63.1859L17.3843 62.2433C17.859 61.77 17.9069 61.018 17.499 60.4874C17.091 59.9567 16.351 59.8114 15.7737 60.146C15.0484 60.5645 13.7723 60.5153 12.671 59.4153C11.5004 58.2447 11.5057 56.9474 11.8831 56.4007C12.3017 55.7954 12.1484 54.9647 11.5431 54.546C10.9364 54.126 10.1071 54.2793 9.6884 54.886C8.60981 56.4486 8.63903 59.1539 10.7857 61.3006C11.631 62.1447 12.551 62.6486 13.4577 62.89C13.1537 63.5673 12.9937 64.3073 12.9937 65.0714C12.9937 66.4954 13.5484 67.8354 14.5563 68.842C15.9243 70.2113 17.859 70.6793 19.6149 70.246C19.7189 71.454 20.2322 72.634 21.1549 73.5566C22.4816 74.8819 24.3348 75.3619 26.0442 74.9993C26.2095 76.1033 26.7442 77.2592 27.7548 78.2713C28.9881 79.5033 30.4281 79.9966 31.7428 79.9966C32.5868 79.9966 33.3787 79.7925 34.0307 79.4513C34.6827 79.1099 34.9348 78.3046 34.5921 77.6513C34.2507 77.0005 33.4427 76.7472 32.7934 77.0899Z" fill="#C7CCD1"/>
    </g>
    <defs>
        <clipPath id="clip0_1146_162">
            <rect width="80" height="80" fill="white"/>
        </clipPath>
    </defs>
</svg>