<svg width="395" height="394" viewBox="0 0 395 394" fill="none" xmlns="http://www.w3.org/2000/svg">
    <path d="M173.622 0.488732C184.858 1.45645 195.652 6.50763 203.882 14.3076C212.663 22.6272 217.824 33.8564 219.602 45.8431C221.483 58.55 219.984 71.5025 217.729 84.0556C217.156 87.2317 216.528 90.4002 215.879 93.559C215.409 95.8377 215.331 99.2383 212.889 100.32C211.034 101.142 208.696 100.409 207.3 99.0102C205.333 97.0294 205.285 93.8385 205.533 91.2375C206.86 77.4131 209.742 63.8077 207.885 49.8591C206.559 39.882 202.421 29.6593 195.147 22.6219C196.469 25.4279 197.49 28.4102 198.207 31.4353C201.31 44.5791 199.68 58.7118 194.409 71.0536C191.79 77.1841 188.23 82.9043 183.861 87.9056C181.667 90.4145 179.109 92.5263 176.857 94.9729C175.769 96.1544 174.884 97.5166 174.436 98.9335C178.209 97.9987 181.994 97.1138 185.792 96.3795C188.678 95.8237 192.017 95.6925 194.393 97.7669C196.206 99.3509 196.748 101.97 195.274 103.982C193.525 106.372 189.841 107.747 187.13 108.522C184.202 109.357 181.125 109.567 178.273 108.332C175.694 107.213 173.365 105.016 172.802 102.133C172.726 101.735 172.688 101.345 172.678 100.955C163.66 103.145 154.639 105.319 145.625 107.517C137.17 109.58 128.707 111.728 120.514 114.723C116.271 116.272 112.128 118.064 108.115 120.146C107.338 120.551 106.645 119.351 107.433 118.945C123.579 110.572 141.672 107.047 159.168 102.804C163.719 101.701 168.276 100.488 172.84 99.3381C173.213 97.5746 174.208 95.9554 175.388 94.573C177.593 91.9953 180.285 89.8731 182.546 87.336C184.992 84.5944 187.176 81.6164 189.083 78.4665C192.75 72.4061 195.402 65.7358 196.923 58.7899C199.617 46.4999 199.081 31.6805 192.657 20.4338C191.941 19.8695 191.204 19.3283 190.438 18.8219C168.207 4.1687 143.55 26.2075 129.946 42.8156C121.736 52.8365 114.881 63.9974 109.576 75.8671C106.855 81.9555 104.549 88.2358 102.681 94.6497C100.896 100.778 99.7035 106.999 98.4724 113.26C97.3624 118.901 95.956 124.716 92.647 129.486C88.9422 134.833 83.2266 137.886 77.4868 140.494C63.7438 146.746 49.9113 152.8 36.1252 158.947C35.4978 159.224 34.896 158.655 35.188 158.003C41.2631 144.578 56.5703 140.227 68.312 133.56C74.9218 129.807 80.5678 125.064 84.5044 118.409C88.337 111.935 90.5511 104.651 92.6077 97.4416C94.6895 90.1498 96.7692 82.8933 99.5873 75.8485C102.45 68.6869 105.852 61.758 109.764 55.1295C117.561 41.9224 127.37 29.6792 138.87 19.6179C147.825 11.7797 159.527 4.55313 171.784 5.14247C181.51 5.60958 188.761 11.4608 193.393 19.3001C198.686 23.4993 202.767 29.3375 205.433 35.5977C210.334 47.0931 210.433 59.81 209.254 72.0822C208.63 78.5871 207.423 85.0375 206.876 91.542C206.62 94.6 207.51 100.409 211.959 99.1848C213.756 98.6911 213.877 96.504 214.199 94.9632C214.525 93.3913 214.852 91.8195 215.167 90.2483C217.653 77.8371 219.718 65.1354 218.932 52.4253C218.166 40.0038 214.26 27.7497 205.945 18.3986C198.291 9.79077 187.683 3.90069 176.376 2.19977C149.978 -1.77686 127.785 18.3754 114.378 39.2804C100.141 61.4873 92.5197 87.468 76.8516 108.823C60.9296 130.524 37.5428 145.567 23.971 169.199C12.3973 189.352 7.94051 213.091 9.07078 236.246C9.11801 237.192 9.17421 238.143 9.24117 239.094C10.6459 239.832 11.9437 240.881 13.0393 241.8C16.7194 244.885 19.8893 248.621 22.8892 252.372C26.9525 257.445 30.7148 262.763 34.3334 268.17C42.8174 280.856 50.5406 294.085 57.7027 307.581C64.0555 319.554 70.1421 331.813 74.8216 344.576C76.3261 348.683 77.7934 352.931 78.4243 357.285C78.7211 359.346 79.1424 362.527 77.3427 364.064C74.8315 366.21 70.9513 363.066 69.04 361.506C63.9639 357.355 59.728 352.066 55.7169 346.889C44.0481 331.822 33.9371 315.332 25.2708 298.317C21.2061 290.331 17.4336 282.134 14.5097 273.638C11.1084 263.752 9.16645 253.299 8.18414 242.888C8.09323 241.934 8.01547 240.984 7.9461 240.029C7.53027 239.866 7.10978 239.733 6.68114 239.645C3.79493 239.064 2.58133 242.073 2.24168 244.552C1.46175 250.294 3.09788 256.485 4.58858 261.97C6.84406 270.27 9.89473 278.353 13.2329 286.256C20.5627 303.614 29.3318 320.613 39.9684 336.127C52.0281 353.714 68.2547 368.473 86.8316 378.655C107.802 390.15 131.833 395.232 155.461 391.041C181.415 386.424 204.913 372.205 224.194 354.327C244.937 335.092 261.269 311.81 277.011 288.352C283.596 278.538 290.576 268.118 292.458 256.162C288.911 255.251 285.552 253.572 282.487 251.551C274.545 246.315 267.892 239.026 261.626 231.879C248.377 216.755 236.575 200.171 226.316 182.823C221.263 174.274 216.573 165.472 212.658 156.318C209.495 148.929 206.69 141.211 205.421 133.226C204.406 126.823 203.955 109.832 214.606 111.867C218.884 112.684 222.654 115.966 225.767 118.858C230.645 123.386 234.927 128.579 239.002 133.849C248.021 145.526 256.074 157.984 263.695 170.639C271.042 182.844 277.458 195.272 282.966 208.482C285.73 215.12 288.298 221.863 290.466 228.727C292.414 234.888 293.984 241.248 294.272 247.732C294.383 250.23 294.257 252.675 293.932 255.072C299.418 256.102 304.516 254.696 309.692 252.232C315.304 249.556 320.921 247.132 326.923 245.495C332.864 243.877 338.977 242.905 345.116 242.586C351.259 242.264 357.428 242.616 363.494 243.629C366.06 244.059 370.992 245.653 372.847 242.941C375.137 239.6 369.945 236.864 367.727 235.693C344.171 223.237 321.999 207.706 303.69 188.048C294.41 178.087 286.042 167.193 279.728 155.033C276.64 149.088 273.979 142.859 271.833 136.446C268.383 130.119 265.242 123.622 262.53 116.948C258.422 106.837 255.306 95.5733 256.508 84.5377C257 80.0231 258.253 75.5652 260.544 71.6411C261.48 70.0343 264.425 64.9969 266.75 67.441C268.339 69.1111 267.816 72.2864 267.749 74.3342C267.625 77.9373 267.474 81.5333 267.354 85.134C267.114 92.2278 266.985 99.3303 267.4 106.419C267.993 116.47 269.972 126.381 273.126 135.908C277.306 143.578 281.936 151 286.896 158.161C301.949 179.91 321.143 198.743 343.13 213.172C354.249 220.471 366.296 227.208 378.874 231.518C382.006 232.59 385.711 234.025 389.051 233.328C392.278 232.657 393.455 229.602 393.233 226.575C393.011 223.481 391.705 220.614 390.349 217.885C388.836 214.841 387.078 211.923 385.136 209.142C368.658 185.564 341.425 174.111 318.083 159.187C298.266 146.518 275.582 128.561 275.236 102.513C275.225 101.62 276.593 101.627 276.604 102.519C276.798 116.962 284.316 129.152 294.27 138.939C304.475 148.969 316.476 156.831 328.7 164.054C352.618 178.198 380.062 192.198 392.387 218.981C394.174 222.872 396.118 228.526 393.135 232.352C389.267 237.314 381.315 233.922 376.668 232.202C364.086 227.543 352.051 220.827 340.891 213.348C318.495 198.345 299.174 178.856 284.019 156.381C281.258 152.286 278.593 148.107 276.056 143.847C276.828 145.736 277.645 147.605 278.509 149.457C284.723 162.785 293.329 174.647 303.162 185.444C312.577 195.78 323.083 205.056 334.314 213.297C339.962 217.446 345.788 221.338 351.755 225C357.855 228.748 364.186 232.01 370.403 235.543C372.362 236.657 374.43 238.544 374.674 240.952C374.884 243.036 373.62 244.751 371.702 245.394C369.025 246.297 366.116 245.48 363.44 245.024C360.049 244.445 356.627 244.088 353.196 243.939C339.955 243.362 326.564 245.921 314.482 251.47C308.779 254.085 303.263 257.253 296.793 256.862C295.761 256.8 294.735 256.66 293.729 256.458C292.137 266.003 287.485 274.78 282.233 282.941C266.783 306.951 250.133 330.822 229.809 350.863C210.61 369.796 187.256 385.307 160.887 391.338C137.18 396.763 112.766 393.105 91.0032 382.381C71.2763 372.663 53.7205 357.712 40.8048 339.716C29.5135 323.981 20.3938 306.423 12.7408 288.604C9.23159 280.44 6.00987 272.095 3.58513 263.526C1.93865 257.708 0.234492 251.28 0.791481 245.165C1.04939 242.327 2.20328 238.38 5.57651 238.172C6.33413 238.123 7.08717 238.253 7.82096 238.496C6.39844 216.355 10.0116 193.659 19.9453 173.795C25.8232 162.042 34.0365 151.969 43.1395 142.657C53.0982 132.47 63.8635 123.027 72.8029 111.859C90.1908 90.141 97.9501 62.7273 112.694 39.3744C125.877 18.4764 147.398 -1.76885 173.622 0.488732ZM175.742 104.906C178.398 107.817 182.337 108.262 185.959 107.393C187.738 106.966 189.454 106.293 191.064 105.422C192.605 104.586 194.758 103.476 194.782 101.431C194.835 96.908 188.465 97.2328 185.606 97.8352C181.759 98.6493 177.942 99.6548 174.124 100.599C174.038 102.064 174.499 103.542 175.742 104.906ZM189.122 15.3504C184.495 9.84408 177.986 6.59062 170.844 6.49712C164.157 6.40886 157.641 8.79933 151.85 12.0325C145.79 15.4115 140.438 19.8296 135.45 24.6623C129.595 30.3315 124.2 36.5061 119.358 43.0859C109.81 56.053 102.328 70.5975 97.3803 85.9972C92.9145 99.8923 90.5474 115.815 79.9927 126.629C69.4826 137.393 53.6577 139.893 42.7164 149.977C40.5157 152.004 38.6758 154.322 37.2511 156.94C50.4396 151.065 63.6583 145.263 76.8045 139.294C83.0218 136.467 89.1261 133.118 92.634 126.925C95.635 121.623 96.6834 115.452 97.7933 109.517C102.338 85.2558 112.507 62.4256 127.853 43.2177C135.095 34.1493 143.384 25.5416 153.337 19.55C162.242 14.1909 172.894 10.9862 183.138 13.9329C185.846 14.7095 188.363 15.8862 190.691 17.3664C190.188 16.6771 189.671 16.0018 189.122 15.3504ZM266.851 115.058C265.098 101.654 265.914 88.1172 266.379 74.657C266.418 73.4912 267.054 66.742 264.521 68.6635C263.193 69.6686 262.26 71.3872 261.459 72.8299C259 77.2428 257.88 82.3181 257.681 87.3571C257.234 98.5048 260.761 109.544 265.146 119.622C266.581 122.922 268.111 126.182 269.725 129.394C268.456 124.673 267.482 119.881 266.851 115.058ZM292.706 254.393C294.213 241.131 289.067 227.725 284.379 215.613C278.879 201.408 272.3 187.831 264.572 174.77C257.457 162.74 249.925 150.915 241.672 139.655C237.633 134.144 233.407 128.736 228.736 123.759C225.337 120.14 221.583 116.345 217.079 114.172C214.193 112.777 210.951 112.511 208.873 115.371C205.822 119.565 205.902 125.781 206.458 130.7C207.315 138.282 209.806 145.675 212.639 152.708C216.191 161.516 220.539 169.992 225.236 178.218C235.013 195.345 246.371 211.658 259.018 226.722C264.74 233.538 270.75 240.292 277.516 246.054C281.724 249.639 286.442 252.925 291.755 254.533C292.059 254.626 292.359 254.704 292.66 254.783C292.67 254.653 292.69 254.522 292.706 254.393ZM14.4367 269.002C16.8536 277.145 20.2615 284.985 23.9484 292.609C32.0834 309.444 41.7988 325.639 52.7727 340.718C57.0476 346.595 61.5443 352.421 66.7054 357.534C68.3671 359.185 70.1184 360.816 72.1002 362.07C73.1283 362.723 74.5863 363.632 75.8656 363.306C77.6556 362.85 77.3347 359.65 77.1442 358.07C76.6496 354.015 75.3061 350.034 73.946 346.209C69.623 334.036 63.8668 322.358 57.9035 310.942C51.0294 297.787 43.6032 284.905 35.5168 272.477C29.2227 262.812 22.5987 252.831 14.2906 244.805C12.87 243.432 11.1964 241.8 9.34336 240.714C10.0809 250.273 11.7199 259.84 14.4367 269.002Z" fill="#2571B5"/>
</svg>