<svg width="15" height="16" viewBox="0 0 15 16" fill="none" xmlns="http://www.w3.org/2000/svg">
    <path d="M1.03962 15.8477L1.03966 15.8472L1.02779 15.8473C0.912259 15.8479 0.797734 15.8258 0.69078 15.7821C0.583989 15.7385 0.486844 15.6742 0.404898 15.5931C0.241632 15.4286 0.15 15.2063 0.15 14.9745C0.15 14.7426 0.241771 14.5201 0.405274 14.3557L0.406256 14.3547L2.46064 12.2489C2.46087 12.2487 2.4611 12.2485 2.46132 12.2482C3.02433 11.6847 3.03951 11.0045 2.91286 10.4762C2.8496 10.2122 2.75035 9.98156 2.66249 9.81293C2.61848 9.72844 2.57679 9.65852 2.54301 9.60675C2.52617 9.58093 2.51081 9.55889 2.49767 9.54139C2.492 9.53384 2.48404 9.52341 2.47478 9.51287L2.42363 9.42762C1.74832 8.14796 1.53212 6.67542 1.81117 5.25558C2.09047 3.83442 2.84903 2.55216 3.96009 1.62304C5.07115 0.69393 6.4674 0.174246 7.91556 0.150828C9.36372 0.127409 10.776 0.601674 11.9166 1.49438C13.0571 2.38708 13.8567 3.64415 14.1818 5.05553C14.5069 6.46691 14.3378 7.94712 13.7028 9.24883C13.0678 10.5505 12.0052 11.5949 10.6928 12.2074C9.38032 12.8199 7.89742 12.9634 6.49185 12.614L6.49188 12.6139L6.48602 12.6127C6.37033 12.5887 6.26065 12.5417 6.16355 12.4744C6.06646 12.4071 5.98396 12.3209 5.92098 12.2209C5.858 12.121 5.81585 12.0093 5.79705 11.8927C5.77824 11.7761 5.78318 11.6568 5.81156 11.5421C5.83993 11.4275 5.89116 11.3197 5.96218 11.2253C6.0332 11.1309 6.12255 11.0518 6.22487 10.9927C6.32719 10.9336 6.44038 10.8958 6.55766 10.8816C6.67494 10.8673 6.79389 10.8768 6.90739 10.9096L6.90738 10.9097L6.90976 10.9103C8.05648 11.2214 9.27927 11.0735 10.3188 10.4982C11.3582 9.92296 12.1328 8.96557 12.4783 7.82897C12.7021 7.11246 12.7459 6.35185 12.6059 5.61437C12.4659 4.8767 12.1463 4.18489 11.6753 3.60013C11.2043 3.01537 10.5965 2.55567 9.90557 2.26169C9.21467 1.96771 8.46197 1.8485 7.71404 1.9146C6.96611 1.98071 6.24599 2.23009 5.61736 2.6407C4.98873 3.05131 4.47097 3.61049 4.10985 4.26879C3.74874 4.9271 3.5554 5.66424 3.54693 6.41504C3.53846 7.16584 3.71513 7.90716 4.0613 8.57344L4.06606 8.5826L4.07204 8.59103C4.59366 9.3269 4.84854 10.2188 4.79451 11.1191C4.74056 12.0183 4.38177 12.8722 3.77737 13.54L1.72434 15.5931C1.63518 15.6822 1.52787 15.751 1.40972 15.795C1.29157 15.8389 1.16534 15.8569 1.03962 15.8477Z" fill="#8E96A2" stroke="white" stroke-width="0.3"/>
</svg>